<svg width="290" height="36" viewBox="0 0 290 36" fill="none" xmlns="http://www.w3.org/2000/svg">
<path d="M19.2365 12.0316C19.1259 10.8601 18.6487 9.95088 17.8048 9.30395C16.9715 8.64632 15.7826 8.32019 14.2378 8.32556C13.2151 8.32911 12.3633 8.46523 11.6824 8.73393C11.0015 9.00264 10.4914 9.37195 10.1522 9.84188C9.81283 10.3012 9.63888 10.8291 9.6303 11.4257C9.6107 11.9159 9.70808 12.347 9.92244 12.7191C10.1475 13.0912 10.4682 13.4204 10.8847 13.7066C11.3118 13.9821 11.824 14.2253 12.4213 14.4363C13.0186 14.6473 13.6904 14.8314 14.4367 14.9886L17.2514 15.6181C18.872 15.964 20.3011 16.4278 21.539 17.0094C22.7874 17.591 23.8339 18.2852 24.6783 19.0919C25.5334 19.8986 26.1812 20.8286 26.6216 21.8817C27.0621 22.9349 27.2899 24.1166 27.3051 25.427C27.3016 27.4937 26.7858 29.2693 25.7575 30.7537C24.7293 32.2381 23.2471 33.3779 21.3109 34.173C19.3854 34.968 17.059 35.3703 14.3317 35.3797C11.5938 35.3892 9.20606 34.9874 7.16843 34.1741C5.13079 33.3609 3.54444 32.1199 2.40938 30.4513C1.27432 28.7826 0.68637 26.6699 0.645533 24.1133L8.22006 24.087C8.28764 25.1414 8.57301 26.0193 9.07616 26.7207C9.5793 27.4221 10.2683 27.9524 11.1431 28.3116C12.0286 28.6707 13.052 28.8483 14.2132 28.8442C15.2785 28.8405 16.1835 28.6936 16.9283 28.4033C17.6837 28.1131 18.2629 27.7116 18.6659 27.1988C19.069 26.686 19.2747 26.0994 19.2831 25.4388C19.2703 24.821 19.0767 24.2943 18.7023 23.8588C18.3279 23.4127 17.7513 23.0311 16.9725 22.7142C16.2043 22.3866 15.2231 22.0864 14.029 21.8136L10.6065 21.0265C7.77042 20.3864 5.5349 19.3448 3.89991 17.9016C2.26488 16.4478 1.44838 14.4797 1.45042 11.9975C1.43274 9.97336 1.9699 8.19769 3.06191 6.67046C4.15391 5.14322 5.66789 3.9501 7.60384 3.0911C9.53979 2.2321 11.7489 1.79829 14.2311 1.78967C16.7666 1.78087 18.968 2.20469 20.8353 3.06114C22.7133 3.9069 24.1716 5.10035 25.2104 6.6415C26.2491 8.18265 26.7827 9.97058 26.811 12.0053L19.2365 12.0316ZM37.4015 34.8841L28.9001 34.9137L39.8287 2.14825L50.3595 2.11169L61.5153 34.8004L53.0139 34.8299L45.2425 10.3752L44.9869 10.3761L37.4015 34.8841ZM36.2222 22.0082L53.9919 21.9465L54.0128 27.955L36.243 28.0167L36.2222 22.0082ZM67.9615 2.05058L75.3635 25.9952L75.6352 25.9943L82.8708 1.99881L91.7238 1.96808L80.7952 34.7335L70.2644 34.7701L59.1085 2.08131L67.9615 2.05058ZM95.361 34.6829L95.2474 1.95584L118.067 1.87662L118.089 8.30059L103.18 8.35235L103.203 15.064L116.946 15.0162L116.968 21.4562L103.225 21.5039L103.249 28.2315L118.158 28.1797L118.18 34.6037L95.361 34.6829ZM131.64 8.25354L131.618 1.82957L159.279 1.73354L159.302 8.1575L149.378 8.19196L149.469 34.4951L141.671 34.5221L141.58 8.21903L131.64 8.25354ZM192.595 17.9816C192.607 21.5824 191.925 24.637 190.549 27.1454C189.173 29.6537 187.304 31.5618 184.944 32.8698C182.594 34.1776 179.954 34.8367 177.024 34.8468C174.084 34.8571 171.434 34.2111 169.076 32.9089C166.717 31.6067 164.84 29.7116 163.447 27.2235C162.064 24.7247 161.366 21.6802 161.354 18.0901C161.341 14.4892 162.018 11.4347 163.383 8.92636C164.759 6.41802 166.623 4.5099 168.972 3.20202C171.322 1.89414 173.967 1.23509 176.908 1.22489C179.837 1.21471 182.482 1.8554 184.841 3.14693C187.21 4.43843 189.092 6.33354 190.485 8.83227C191.879 11.331 192.582 14.3808 192.595 17.9816ZM184.509 18.0097C184.501 15.879 184.191 14.0796 183.579 12.6116C182.977 11.1435 182.111 10.0332 180.979 9.28076C179.857 8.52825 178.508 8.15474 176.932 8.16021C175.366 8.16565 174.019 8.54852 172.893 9.30883C171.766 10.0691 170.902 11.1854 170.3 12.6577C169.708 14.1299 169.416 15.9314 169.423 18.0621C169.431 20.1927 169.735 21.9921 170.337 23.4602C170.949 24.9282 171.822 26.0385 172.953 26.791C174.085 27.5434 175.434 27.917 177 27.9115C178.577 27.906 179.923 27.5232 181.039 26.7629C182.166 26.0026 183.025 24.8863 183.617 23.4141C184.219 21.9418 184.516 20.1403 184.509 18.0097ZM209.366 34.2871L197.27 34.3291L197.156 1.60203L209.237 1.56009C212.571 1.54851 215.445 2.19373 217.857 3.49573C220.28 4.78704 222.151 6.65556 223.469 9.10128C224.788 11.5363 225.454 14.4531 225.465 17.8515C225.477 21.2606 224.832 24.1925 223.53 26.6473C222.239 29.1021 220.387 30.9889 217.973 32.3076C215.559 33.6157 212.69 34.2756 209.366 34.2871ZM205.156 27.5581L209.039 27.5446C210.872 27.5382 212.421 27.2239 213.686 26.6016C214.963 25.9686 215.923 24.9479 216.568 23.5394C217.224 22.1202 217.547 20.2334 217.539 17.879C217.531 15.5246 217.194 13.6508 216.529 12.2575C215.864 10.8535 214.885 9.84486 213.594 9.23145C212.314 8.60733 210.736 8.29853 208.861 8.30504L205.089 8.31814L205.156 27.5581ZM235.286 34.1971L226.785 34.2266L237.713 1.46122L248.244 1.42466L259.4 34.1134L250.898 34.1429L243.127 9.68822L242.871 9.6891L235.286 34.1971ZM234.107 21.3212L251.876 21.2595L251.897 27.268L234.128 27.3297L234.107 21.3212ZM257.84 1.39135L266.677 1.36067L273.644 15.0315L273.932 15.0305L280.803 1.31162L289.64 1.28094L277.747 23.1192L277.785 34.0496L269.923 34.0769L269.885 23.1465L257.84 1.39135Z" fill="#ED6B48"/>
</svg>
